<mxfile host="app.diagrams.net" agent="Mozilla/5.0 (Windows NT 10.0; Win64; x64) AppleWebKit/537.36 (KHTML, like Gecko) Chrome/127.0.0.0 Safari/537.36" version="24.7.6">
  <diagram name="Page-1" id="13e1069c-82ec-6db2-03f1-153e76fe0fe0">
    <mxGraphModel dx="1195" dy="655" grid="0" gridSize="10" guides="1" tooltips="1" connect="1" arrows="1" fold="1" page="0" pageScale="1" pageWidth="1100" pageHeight="850" background="none" math="0" shadow="0">
      <root>
        <mxCell id="0" />
        <mxCell id="1" parent="0" />
        <mxCell id="7baba1c4bc27f4b0-2" value="客户端前台" style="shape=umlLifeline;perimeter=lifelinePerimeter;whiteSpace=wrap;html=1;container=1;collapsible=0;recursiveResize=0;outlineConnect=0;rounded=1;shadow=0;comic=0;labelBackgroundColor=none;strokeWidth=1;fontFamily=Verdana;fontSize=12;align=center;fillColor=#FAE5C7;strokeColor=#0F8B8D;fontColor=#143642;" parent="1" vertex="1">
          <mxGeometry x="254" y="80" width="100" height="580" as="geometry" />
        </mxCell>
        <mxCell id="VOX3392ME9ddjnyHGqBW-4" value="" style="html=1;points=[[0,0,0,0,5],[0,1,0,0,-5],[1,0,0,0,5],[1,1,0,0,-5]];perimeter=orthogonalPerimeter;outlineConnect=0;targetShapes=umlLifeline;portConstraint=eastwest;newEdgeStyle={&quot;curved&quot;:0,&quot;rounded&quot;:0};strokeColor=#0F8B8D;fontColor=#143642;fillColor=#FAE5C7;" vertex="1" parent="7baba1c4bc27f4b0-2">
          <mxGeometry x="45" y="95" width="10" height="118" as="geometry" />
        </mxCell>
        <mxCell id="7baba1c4bc27f4b0-3" value="客户端后台" style="shape=umlLifeline;perimeter=lifelinePerimeter;whiteSpace=wrap;html=1;container=1;collapsible=0;recursiveResize=0;outlineConnect=0;rounded=1;shadow=0;comic=0;labelBackgroundColor=none;strokeWidth=1;fontFamily=Verdana;fontSize=12;align=center;fillColor=#FAE5C7;strokeColor=#0F8B8D;fontColor=#143642;" parent="1" vertex="1">
          <mxGeometry x="427" y="80" width="100" height="580" as="geometry" />
        </mxCell>
        <mxCell id="VOX3392ME9ddjnyHGqBW-5" value="" style="html=1;points=[[0,0,0,0,5],[0,1,0,0,-5],[1,0,0,0,5],[1,1,0,0,-5]];perimeter=orthogonalPerimeter;outlineConnect=0;targetShapes=umlLifeline;portConstraint=eastwest;newEdgeStyle={&quot;curved&quot;:0,&quot;rounded&quot;:0};strokeColor=#0F8B8D;fontColor=#143642;fillColor=#FAE5C7;" vertex="1" parent="7baba1c4bc27f4b0-3">
          <mxGeometry x="45" y="98" width="10" height="102" as="geometry" />
        </mxCell>
        <mxCell id="VOX3392ME9ddjnyHGqBW-26" value="" style="html=1;points=[[0,0,0,0,5],[0,1,0,0,-5],[1,0,0,0,5],[1,1,0,0,-5]];perimeter=orthogonalPerimeter;outlineConnect=0;targetShapes=umlLifeline;portConstraint=eastwest;newEdgeStyle={&quot;curved&quot;:0,&quot;rounded&quot;:0};strokeColor=#0F8B8D;fontColor=#143642;fillColor=#FAE5C7;" vertex="1" parent="7baba1c4bc27f4b0-3">
          <mxGeometry x="45" y="237" width="10" height="114" as="geometry" />
        </mxCell>
        <mxCell id="7baba1c4bc27f4b0-4" value="Redis" style="shape=umlLifeline;perimeter=lifelinePerimeter;whiteSpace=wrap;html=1;container=1;collapsible=0;recursiveResize=0;outlineConnect=0;rounded=1;shadow=0;comic=0;labelBackgroundColor=none;strokeWidth=1;fontFamily=Verdana;fontSize=12;align=center;fillColor=#FAE5C7;strokeColor=#0F8B8D;fontColor=#143642;" parent="1" vertex="1">
          <mxGeometry x="587" y="80" width="99" height="580" as="geometry" />
        </mxCell>
        <mxCell id="7baba1c4bc27f4b0-5" value="MySQL" style="shape=umlLifeline;perimeter=lifelinePerimeter;whiteSpace=wrap;html=1;container=1;collapsible=0;recursiveResize=0;outlineConnect=0;rounded=1;shadow=0;comic=0;labelBackgroundColor=none;strokeWidth=1;fontFamily=Verdana;fontSize=12;align=center;fillColor=#FAE5C7;strokeColor=#0F8B8D;fontColor=#143642;" parent="1" vertex="1">
          <mxGeometry x="751" y="80" width="100" height="580" as="geometry" />
        </mxCell>
        <mxCell id="VOX3392ME9ddjnyHGqBW-28" value="" style="html=1;points=[[0,0,0,0,5],[0,1,0,0,-5],[1,0,0,0,5],[1,1,0,0,-5]];perimeter=orthogonalPerimeter;outlineConnect=0;targetShapes=umlLifeline;portConstraint=eastwest;newEdgeStyle={&quot;curved&quot;:0,&quot;rounded&quot;:0};strokeColor=#0F8B8D;fontColor=#143642;fillColor=#FAE5C7;" vertex="1" parent="7baba1c4bc27f4b0-5">
          <mxGeometry x="45" y="237" width="10" height="114" as="geometry" />
        </mxCell>
        <mxCell id="7baba1c4bc27f4b0-8" value="用户" style="shape=umlLifeline;perimeter=lifelinePerimeter;whiteSpace=wrap;html=1;container=1;collapsible=0;recursiveResize=0;outlineConnect=0;rounded=1;shadow=0;comic=0;labelBackgroundColor=none;strokeWidth=1;fontFamily=Verdana;fontSize=12;align=center;fillColor=#FAE5C7;strokeColor=#0F8B8D;fontColor=#143642;" parent="1" vertex="1">
          <mxGeometry x="100" y="80" width="100" height="580" as="geometry" />
        </mxCell>
        <mxCell id="VOX3392ME9ddjnyHGqBW-1" value="" style="html=1;points=[[0,0,0,0,5],[0,1,0,0,-5],[1,0,0,0,5],[1,1,0,0,-5]];perimeter=orthogonalPerimeter;outlineConnect=0;targetShapes=umlLifeline;portConstraint=eastwest;newEdgeStyle={&quot;curved&quot;:0,&quot;rounded&quot;:0};labelBackgroundColor=none;fillColor=#FAE5C7;strokeColor=#0F8B8D;fontColor=#143642;" vertex="1" parent="7baba1c4bc27f4b0-8">
          <mxGeometry x="45" y="90" width="10" height="80" as="geometry" />
        </mxCell>
        <mxCell id="VOX3392ME9ddjnyHGqBW-3" value="发起扫码" style="html=1;verticalAlign=bottom;endArrow=block;curved=0;rounded=0;strokeColor=#A8201A;fontColor=#143642;fillColor=#FAE5C7;" edge="1" parent="7baba1c4bc27f4b0-8" target="VOX3392ME9ddjnyHGqBW-4">
          <mxGeometry width="80" relative="1" as="geometry">
            <mxPoint x="55" y="102" as="sourcePoint" />
            <mxPoint x="146" y="102" as="targetPoint" />
          </mxGeometry>
        </mxCell>
        <mxCell id="VOX3392ME9ddjnyHGqBW-6" value="根据二维码中短网址的UUID请求" style="html=1;verticalAlign=bottom;endArrow=block;curved=0;rounded=0;strokeColor=#A8201A;fontColor=#143642;fillColor=#FAE5C7;" edge="1" parent="1">
          <mxGeometry x="0.0032" width="80" relative="1" as="geometry">
            <mxPoint x="309" y="201" as="sourcePoint" />
            <mxPoint x="472" y="201" as="targetPoint" />
            <mxPoint as="offset" />
          </mxGeometry>
        </mxCell>
        <mxCell id="VOX3392ME9ddjnyHGqBW-14" value="查询UUID对应的二维码信息" style="shape=umlFrame;whiteSpace=wrap;html=1;pointerEvents=0;recursiveResize=0;container=1;collapsible=0;width=170;strokeColor=#0F8B8D;fontColor=#143642;fillColor=#FAE5C7;" vertex="1" parent="1">
          <mxGeometry x="472" y="140" width="349" height="291" as="geometry" />
        </mxCell>
        <mxCell id="VOX3392ME9ddjnyHGqBW-15" value="[UUID存在于Redis]" style="text;html=1;fontColor=#143642;" vertex="1" parent="VOX3392ME9ddjnyHGqBW-14">
          <mxGeometry width="100" height="20" relative="1" as="geometry">
            <mxPoint x="19" y="26" as="offset" />
          </mxGeometry>
        </mxCell>
        <mxCell id="VOX3392ME9ddjnyHGqBW-16" value="" style="line;strokeWidth=1;dashed=1;labelPosition=center;verticalLabelPosition=bottom;align=left;verticalAlign=top;spacingLeft=20;spacingTop=15;html=1;whiteSpace=wrap;strokeColor=#0F8B8D;fontColor=#143642;fillColor=#FAE5C7;" vertex="1" parent="VOX3392ME9ddjnyHGqBW-14">
          <mxGeometry y="125" width="347" height="10" as="geometry" />
        </mxCell>
        <mxCell id="VOX3392ME9ddjnyHGqBW-19" value="" style="html=1;points=[[0,0,0,0,5],[0,1,0,0,-5],[1,0,0,0,5],[1,1,0,0,-5]];perimeter=orthogonalPerimeter;outlineConnect=0;targetShapes=umlLifeline;portConstraint=eastwest;newEdgeStyle={&quot;curved&quot;:0,&quot;rounded&quot;:0};strokeColor=#0F8B8D;fontColor=#143642;fillColor=#FAE5C7;" vertex="1" parent="VOX3392ME9ddjnyHGqBW-14">
          <mxGeometry x="160" y="41" width="10" height="80" as="geometry" />
        </mxCell>
        <mxCell id="VOX3392ME9ddjnyHGqBW-17" value="[UUID不存在于Redis]" style="text;html=1;fontColor=#143642;" vertex="1" parent="1">
          <mxGeometry x="488" y="270" width="100" height="20" as="geometry" />
        </mxCell>
        <mxCell id="VOX3392ME9ddjnyHGqBW-20" value="查询UUID" style="html=1;verticalAlign=bottom;endArrow=block;curved=0;rounded=0;entryX=0;entryY=0;entryDx=0;entryDy=5;strokeColor=#A8201A;fontColor=#143642;fillColor=#FAE5C7;" edge="1" parent="1">
          <mxGeometry relative="1" as="geometry">
            <mxPoint x="482" y="211" as="sourcePoint" />
            <mxPoint x="632" y="211" as="targetPoint" />
          </mxGeometry>
        </mxCell>
        <mxCell id="VOX3392ME9ddjnyHGqBW-21" value="返回UUID对应的二维码数据" style="html=1;verticalAlign=bottom;endArrow=open;dashed=1;endSize=8;curved=0;rounded=0;exitX=0;exitY=1;exitDx=0;exitDy=-5;strokeColor=#A8201A;fontColor=#143642;fillColor=#FAE5C7;" edge="1" source="VOX3392ME9ddjnyHGqBW-19" parent="1" target="VOX3392ME9ddjnyHGqBW-5">
          <mxGeometry x="0.0027" relative="1" as="geometry">
            <mxPoint x="617" y="250" as="targetPoint" />
            <mxPoint as="offset" />
          </mxGeometry>
        </mxCell>
        <mxCell id="VOX3392ME9ddjnyHGqBW-35" value="返回UUID对应的二维码数据" style="html=1;verticalAlign=bottom;endArrow=open;dashed=1;endSize=8;curved=0;rounded=0;strokeColor=#A8201A;fontColor=#143642;fillColor=#FAE5C7;" edge="1" parent="1">
          <mxGeometry x="0.0013" relative="1" as="geometry">
            <mxPoint x="796" y="417.5" as="sourcePoint" />
            <mxPoint x="482" y="417.5" as="targetPoint" />
            <mxPoint as="offset" />
          </mxGeometry>
        </mxCell>
        <mxCell id="VOX3392ME9ddjnyHGqBW-36" value="查询UUID" style="html=1;verticalAlign=bottom;endArrow=block;curved=0;rounded=0;strokeColor=#A8201A;fontColor=#143642;fillColor=#FAE5C7;" edge="1" parent="1">
          <mxGeometry x="0.0013" width="80" relative="1" as="geometry">
            <mxPoint x="482" y="328.5" as="sourcePoint" />
            <mxPoint x="796" y="328.5" as="targetPoint" />
            <mxPoint as="offset" />
          </mxGeometry>
        </mxCell>
        <mxCell id="VOX3392ME9ddjnyHGqBW-37" value="返回二维码信息" style="html=1;verticalAlign=bottom;endArrow=open;dashed=1;endSize=8;curved=0;rounded=0;strokeColor=#A8201A;fontColor=#143642;fillColor=#FAE5C7;exitX=-0.001;exitY=0.466;exitDx=0;exitDy=0;exitPerimeter=0;" edge="1" parent="1" source="VOX3392ME9ddjnyHGqBW-14" target="VOX3392ME9ddjnyHGqBW-4">
          <mxGeometry relative="1" as="geometry">
            <mxPoint x="442" y="275" as="sourcePoint" />
            <mxPoint x="325" y="277" as="targetPoint" />
          </mxGeometry>
        </mxCell>
      </root>
    </mxGraphModel>
  </diagram>
</mxfile>
